<?xml version="1.0" standalone="no"?>
<!DOCTYPE svg PUBLIC "-//W3C//DTD SVG 20010904//EN"
 "http://www.w3.org/TR/2001/REC-SVG-20010904/DTD/svg10.dtd">
<svg version="1.0" xmlns="http://www.w3.org/2000/svg"
 width="129.000000pt" height="129.000000pt" viewBox="0 0 129.000000 129.000000"
 preserveAspectRatio="xMidYMid meet">
<metadata>
Created by potrace 1.11, written by Peter Selinger 2001-2013
</metadata>
<g transform="translate(0.000000,129.000000) scale(0.100000,-0.100000)"
fill="#000000" stroke="none">
<path d="M675 1098 c-21 -60 -25 -152 -11 -254 l8 -51 -35 -7 c-42 -8 -202
-85 -265 -128 -26 -17 -70 -51 -98 -75 l-52 -44 -21 34 c-52 84 -62 175 -25
237 25 43 66 67 123 74 50 5 71 0 71 -19 0 -26 108 -43 167 -26 11 3 -16 35
-43 51 -50 31 -87 40 -107 25 -10 -7 -33 -11 -53 -8 -81 11 -147 -24 -184 -98
-34 -65 -19 -173 33 -249 l24 -34 -66 -83 c-73 -90 -132 -183 -135 -210 -1
-15 9 -17 66 -18 l68 -1 0 41 c0 57 44 124 102 155 l46 24 51 -46 c92 -83 134
-106 187 -102 26 2 49 6 52 8 2 2 -6 14 -17 25 -14 14 -30 20 -46 17 -18 -3
-28 1 -36 16 -15 28 -28 75 -23 81 3 2 26 0 52 -5 26 -5 63 -11 82 -14 92 -15
306 -97 471 -180 80 -40 96 -44 159 -44 43 0 70 4 70 11 0 36 -49 74 -104 82
-20 2 -55 32 -121 103 l-93 99 42 40 c23 22 54 57 70 78 23 30 35 37 62 37 18
0 36 5 39 10 4 6 -8 10 -30 10 -22 0 -34 4 -30 10 3 6 19 10 36 10 16 0 29 5
29 11 0 5 -8 9 -17 8 -30 -3 -36 0 -25 14 17 21 42 142 43 208 1 76 -10 177
-21 184 -11 7 -86 -50 -106 -80 -15 -24 -20 -25 -118 -24 -55 0 -108 -3 -117
-6 -12 -4 -24 4 -40 27 -25 35 -38 47 -82 73 -21 13 -28 14 -32 3z"/>
<path d="M1243 1082 c0 -11 5 -18 9 -16 4 3 8 0 8 -7 0 -7 3 -10 6 -6 3 3 -1
16 -9 28 -16 22 -16 22 -14 1z"/>
<path d="M1270 1090 c0 -5 5 -10 10 -10 6 0 10 5 10 10 0 6 -4 10 -10 10 -5 0
-10 -4 -10 -10z"/>
</g>
</svg>
